<svg xmlns="http://www.w3.org/2000/svg" viewBox="0 0 297 297"><path d="M45.4 35c0 0 0 0 0 0 -2.8 0-5.5 1.1-7.4 3.1 -2 2-3.1 4.7-3.1 7.5v159.4c0 5.8 4.8 10.6 10.6 10.6 24.7 0.1 66.2 5.2 94.8 35.1V84c0-2-0.5-3.8-1.5-5.4C115.3 40.8 70.2 35.1 45.4 35z"/><path d="M262.2 205V45.7c0-2.9-1.1-5.5-3.1-7.5 -2-2-4.6-3.1-7.4-3.1 0 0 0 0 0 0 -24.8 0.1-69.9 5.8-93.4 43.6 -1 1.5-1.5 3.4-1.5 5.4v166.8c28.6-29.9 70-35.1 94.8-35.1C257.4 215.7 262.2 210.9 262.2 205z"/><path d="M286.4 71.8h-7.7v133.2c0 14.9-12.2 27.1-27.1 27.1 -21 0.1-55.6 4.2-80.1 27.3 42.4-10.4 87.1-3.6 112.5 2.2 3.2 0.7 6.5 0 9-2.1 2.5-2 4-5.1 4-8.3V82.4C297 76.6 292.2 71.8 286.4 71.8z"/><path d="M18.3 205V71.8h-7.7C4.8 71.8 0 76.6 0 82.4v168.9c0 3.3 1.5 6.3 4 8.3 2.5 2 5.8 2.8 9 2.1 25.5-5.8 70.1-12.5 112.5-2.2 -24.5-23.2-59.1-27.3-80.1-27.3C30.5 232.1 18.3 220 18.3 205z"/></svg>